<?xml version="1.0" encoding="iso-8859-1"?>
<!-- Generator: Adobe Illustrator 19.0.0, SVG Export Plug-In . SVG Version: 6.00 Build 0)  -->
<svg xmlns="http://www.w3.org/2000/svg" xmlns:xlink="http://www.w3.org/1999/xlink" version="1.1" id="Capa_1" x="0px" y="0px" viewBox="0 0 512 512" style="enable-background:new 0 0 512 512;" xml:space="preserve" width="512px" height="512px">
<g>
	<g>
		<path d="M390.412,108.119C384.427,47.508,333.159,0,271,0H156c-29.718,0-58.198,11.027-80.194,31.049    c-21.622,19.682-35.504,46.62-39.092,75.854L0,406.083V482h341v30h30V392h-30v-40.39c0-16.542,13.458-30,30-30h66    c41.355,0,75-33.645,75-75V138.265L390.412,108.119z M66.49,110.557C72.126,64.632,110.607,30,156,30h115    c44.516,0,81.58,32.489,88.743,75h-37.932v30h37.932c-7.163,42.511-44.227,75-88.743,75h-5V105h-30v232c0,30.327-24.673,55-55,55    c-30.327,0-55-24.673-55-55V120c0-16.542,13.458-30,30-30V60c-33.084,0-60,26.916-60,60v217c0,20.962,7.643,40.163,20.269,55    H31.953L66.49,110.557z M341,452H30v-30h311V452z M482,246.61c0,24.813-20.187,45-45,45h-66c-33.084,0-60,26.916-60,60V392    h-65.269C258.357,377.163,266,357.962,266,337v-97h5c59.771,0,109.47-43.928,118.522-101.193L482,161.735V246.61z" fill="#FFFFFF"/>
	</g>
</g>
<g>
</g>
<g>
</g>
<g>
</g>
<g>
</g>
<g>
</g>
<g>
</g>
<g>
</g>
<g>
</g>
<g>
</g>
<g>
</g>
<g>
</g>
<g>
</g>
<g>
</g>
<g>
</g>
<g>
</g>
</svg>
